<?xml version="1.0" standalone="no"?>
<!DOCTYPE svg PUBLIC "-//W3C//DTD SVG 20010904//EN"
 "http://www.w3.org/TR/2001/REC-SVG-20010904/DTD/svg10.dtd">
<svg version="1.0" xmlns="http://www.w3.org/2000/svg"
 width="128.000000pt" height="128.000000pt" viewBox="0 0 128.000000 128.000000"
 preserveAspectRatio="xMidYMid meet">
<metadata>
Created by potrace 1.11, written by Peter Selinger 2001-2013
</metadata>
<g transform="translate(0.000000,128.000000) scale(0.100000,-0.100000)"
fill="#000000" stroke="none">
<path d="M496 1195 c-3 -9 -6 -29 -6 -45 0 -22 -6 -29 -27 -35 -21 -5 -31 -1
-44 17 l-18 23 -10 -28 c-6 -16 -11 -39 -11 -52 0 -18 -7 -26 -26 -31 -14 -4
-23 -12 -21 -18 35 -86 41 -95 65 -104 44 -15 52 -6 52 61 1 54 2 60 14 45 13
-17 75 -48 96 -48 13 0 13 47 1 55 -13 8 -10 65 3 65 6 0 18 -13 28 -29 20
-37 163 -110 180 -93 7 7 25 1 60 -24 59 -40 68 -42 69 -11 0 12 2 29 4 37 16
73 15 77 -8 76 -51 -4 -62 7 -67 75 l-5 64 -17 -37 c-14 -32 -22 -38 -47 -38
-17 0 -31 -4 -31 -10 0 -5 -4 -10 -8 -10 -5 0 -14 22 -21 49 -13 51 -34 60
-44 20 -4 -15 -14 -19 -47 -19 -33 0 -41 -3 -36 -15 11 -28 -12 -15 -24 14 -6
16 -20 37 -30 46 -16 15 -18 15 -24 0z"/>
<path d="M820 809 c-179 -67 -221 -71 -337 -34 -117 37 -137 35 -173 -22 -16
-27 -30 -63 -31 -83 -1 -19 -3 -27 -6 -17 -5 20 -23 22 -45 5 -12 -9 -19 -36
-23 -93 -8 -104 3 -126 68 -140 45 -10 50 -14 84 -75 19 -36 38 -67 42 -70 3
-3 12 -17 18 -33 7 -15 18 -27 24 -27 7 0 18 -8 26 -18 48 -61 53 -71 42 -78
-8 -4 -9 -3 -5 4 5 8 1 10 -10 5 -28 -11 55 -81 105 -89 31 -5 41 -11 41 -25
0 -16 8 -19 58 -19 l59 0 -5 31 c-3 23 2 37 21 57 50 54 197 312 177 312 -5 0
-10 7 -10 16 0 9 5 12 12 8 6 -4 8 -3 4 4 -3 6 3 34 15 64 31 78 49 147 49
196 0 42 -31 119 -54 134 -21 14 -91 7 -146 -13z"/>
<path d="M1030 668 c0 -78 -16 -152 -44 -206 -10 -19 -15 -36 -12 -39 2 -3 39
5 82 18 70 21 78 26 91 58 28 66 0 193 -44 199 -11 2 -29 12 -39 23 -9 10 -21
19 -26 19 -4 0 -8 -33 -8 -72z"/>
</g>
</svg>
