<?xml version="1.0" encoding="UTF-8" standalone="no"?>
<!-- Created with Inkscape (http://www.inkscape.org/) -->

<svg
   xmlns:dc="http://purl.org/dc/elements/1.1/"
   xmlns:cc="http://creativecommons.org/ns#"
   xmlns:rdf="http://www.w3.org/1999/02/22-rdf-syntax-ns#"
   xmlns:svg="http://www.w3.org/2000/svg"
   xmlns="http://www.w3.org/2000/svg"
   xmlns:sodipodi="http://sodipodi.sourceforge.net/DTD/sodipodi-0.dtd"
   xmlns:inkscape="http://www.inkscape.org/namespaces/inkscape"
   width="148mm"
   height="105mm"
   viewBox="0 0 148 105"
   version="1.1"
   id="svg8"
   inkscape:version="0.92.4 (5da689c313, 2019-01-14)"
   sodipodi:docname="ERRO IMAGEM NÃO DISPONÍVEL.svg">
  <defs
     id="defs2" />
  <sodipodi:namedview
     id="base"
     pagecolor="#ffffff"
     bordercolor="#666666"
     borderopacity="1.0"
     inkscape:pageopacity="0.0"
     inkscape:pageshadow="2"
     inkscape:zoom="9.0473407"
     inkscape:cx="569.74891"
     inkscape:cy="-15.532188"
     inkscape:document-units="mm"
     inkscape:current-layer="layer1"
     showgrid="false"
     inkscape:window-width="1024"
     inkscape:window-height="718"
     inkscape:window-x="0"
     inkscape:window-y="0"
     inkscape:window-maximized="1" />
  <metadata
     id="metadata5">
    <rdf:RDF>
      <cc:Work
         rdf:about="">
        <dc:format>image/svg+xml</dc:format>
        <dc:type
           rdf:resource="http://purl.org/dc/dcmitype/StillImage" />
        <dc:title></dc:title>
      </cc:Work>
    </rdf:RDF>
  </metadata>
  <g
     inkscape:label="Camada 1"
     inkscape:groupmode="layer"
     id="layer1"
     transform="translate(0,-192)">
    <text
       xml:space="preserve"
       style="font-style:normal;font-weight:normal;font-size:10.58333302px;line-height:1.25;font-family:sans-serif;letter-spacing:0px;word-spacing:0px;fill:#000000;fill-opacity:1;stroke:none;stroke-width:0.26458332"
       x="43.089287"
       y="152.6131"
       id="text4623"><tspan
         sodipodi:role="line"
         id="tspan4621"
         x="43.089287"
         y="161.97687"
         style="stroke-width:0.26458332" /></text>
    <text
       xml:space="preserve"
       style="font-style:normal;font-weight:normal;font-size:10.58333302px;line-height:1.25;font-family:sans-serif;letter-spacing:0px;word-spacing:0px;fill:#2b0000;fill-opacity:1;stroke:#2b0000;stroke-width:0.26458332"
       x="48.380955"
       y="181.33928"
       id="text4627"><tspan
         sodipodi:role="line"
         id="tspan4625"
         x="48.380955"
         y="190.70305"
         style="fill:#2b0000;stroke:#2b0000;stroke-width:0.26458332" /></text>
    <flowRoot
       xml:space="preserve"
       id="flowRoot4635"
       style="font-style:normal;font-weight:normal;font-size:40px;line-height:1.25;font-family:sans-serif;letter-spacing:0px;word-spacing:0px;fill:#ffffff;fill-opacity:1;stroke:none"><flowRegion
         id="flowRegion4637"
         style="fill:#ffffff"><rect
           id="rect4639"
           width="589.47748"
           height="110.31516"
           x="87.566811"
           y="440.67734"
           style="fill:#ffffff" /></flowRegion><flowPara
         id="flowPara4641" /></flowRoot>    <g
       id="g858"
       transform="matrix(0.92998314,0,0,0.85967301,-18.748174,167.63514)">
      <rect
         y="28.53731"
         x="20.31967"
         height="117.24612"
         width="158.81496"
         id="rect105"
         style="fill:#008cff;fill-opacity:1;stroke:#0000fd;stroke-width:0.31677231;stroke-opacity:1" />
      <path
         inkscape:transform-center-y="-0.33242419"
         inkscape:transform-center-x="1.7225822"
         d="m 88.288007,80.55671 -9.017816,-5.926543 6.080068,8.915026 -7.688331,-7.571955 4.224006,9.929889 -6.063386,-8.92638 2.205618,10.563151 -4.20543,-9.93777 0.102469,10.790478 -2.18586,-10.567258 -2.004619,10.603133 -0.08229,-10.790651 -4.034669,10.008315 2.024443,-10.599366 -5.909669,9.028884 4.053377,-10.000753 -7.557564,7.702477 5.926543,-9.017817 -8.915026,6.080068 7.571954,-7.68833 -9.929889,4.224006 8.926381,-6.063386 -10.563152,2.205618 9.937771,-4.20543 -10.790478,0.102469 10.567258,-2.18586 -10.603133,-2.004619 10.790651,-0.08229 -10.008315,-4.034668 10.599365,2.024443 -9.028883,-5.909669 10.000753,4.053377 -7.702477,-7.557564 9.017816,5.926543 -6.080068,-8.915026 7.68833,7.571954 -4.224005,-9.929889 6.063386,8.926381 -2.205618,-10.563152 4.205429,9.937771 -0.102468,-10.790478 2.18586,10.567257 2.004618,-10.603132 0.08229,10.790651 4.034669,-10.008316 -2.024443,10.599366 5.909669,-9.028883 -4.053377,10.000752 7.557564,-7.702476 -5.926543,9.017816 8.915026,-6.080068 -7.571955,7.68833 9.929889,-4.224006 -8.92638,6.063387 10.563151,-2.205618 -9.93777,4.205429 10.790478,-0.102468 -10.567258,2.18586 10.603133,2.004618 -10.790651,0.08229 10.008315,4.034669 L 81.5574,71.142854 90.586283,77.052523 80.58553,72.999146 Z"
         inkscape:randomized="0"
         inkscape:rounded="0"
         inkscape:flatsided="false"
         sodipodi:arg2="0.77683726"
         sodipodi:arg1="0.67866249"
         sodipodi:r2="10.688518"
         sodipodi:r1="21.377037"
         sodipodi:cy="67.137222"
         sodipodi:cx="71.647842"
         sodipodi:sides="32"
         id="path4615"
         style="fill:#ffff00;fill-opacity:1;stroke:none;stroke-width:0.18787281;stroke-opacity:1"
         sodipodi:type="star" />
      <path
         id="path14"
         d="m 68.414614,57.201482 c -1.864057,0.587584 -2.978439,1.235951 -4.21439,2.451641 -2.208502,2.107195 -3.140531,4.35622 -3.120269,7.456228 0.02026,3.241838 1.175166,5.734002 3.54576,7.739889 4.07256,3.424192 10.090222,3.160793 13.899383,-0.628106 2.066672,-2.046411 3.201315,-5.045111 2.9987,-7.88172 -0.14183,-1.681703 -0.243138,-2.005887 -1.316997,-4.21439 -1.114382,-2.228764 -2.694778,-3.566022 -5.612432,-4.801973 -1.21569,-0.506537 -4.741189,-0.587583 -6.179755,-0.121569 z"
         inkscape:connector-curvature="0"
         style="fill:#ffff6d;fill-opacity:1;stroke:none;stroke-width:0.02026149" />
      <rect
         y="112.94084"
         x="23.168718"
         height="30.716402"
         width="149.89647"
         id="rect4619"
         style="fill:#2b2101;fill-opacity:0.99029122;stroke:none;stroke-width:0.27151844;stroke-opacity:1" />
      <path
         id="path16"
         d="m 126.77148,48.766051 c -0.4271,0.642909 -0.65187,1.062199 -4.58559,8.329865 -1.84323,3.382259 -4.3608,8.022387 -5.59711,10.286544 -1.25879,2.292109 -2.42767,4.444457 -2.60749,4.807842 -0.17983,0.391334 -0.87666,1.649199 -1.55101,2.851161 -0.67435,1.20196 -2.65245,4.807841 -4.40575,8.050338 -5.23746,9.699546 -9.148697,16.883332 -10.699704,19.706549 -2.540054,4.58421 -6.765986,12.38299 -7.530251,13.83652 -0.40461,0.75471 -0.989047,1.84485 -1.303744,2.37597 -0.337176,0.53109 -1.37118,2.43187 -2.315272,4.19288 -1.933138,3.63383 -2.585011,4.72398 -2.832273,4.72398 -0.224783,0.0281 -2.04553,-2.57164 -3.978668,-5.73028 -1.056484,-1.7051 -2.450143,-3.88539 -5.394808,-8.35781 -3.911233,-5.92594 -9.598258,-14.675094 -11.531398,-17.721913 -0.517003,-0.81062 -1.258788,-1.956678 -1.640919,-2.51573 -0.382133,-0.559053 -1.978097,-2.990923 -3.551581,-5.450747 -1.573486,-2.431883 -3.102014,-4.75194 -3.416711,-5.171229 -0.292219,-0.391336 -0.539481,-0.810626 -0.539481,-0.922434 0,-0.111813 -0.179827,-0.41929 -0.427089,-0.698816 -0.224783,-0.279525 -1.348701,-1.956679 -2.47262,-3.71769 -1.146396,-1.761013 -2.225357,-3.298403 -2.382706,-3.438165 -0.202304,-0.139764 -0.696828,0.33543 -1.50605,1.369675 -0.651871,0.894483 -1.640919,2.1803 -2.202878,2.907067 -1.146397,1.481487 -3.349276,4.388552 -5.821896,7.686961 -0.921613,1.229906 -2.697402,3.549963 -3.933712,5.171227 -2.517577,3.270443 -7.844948,10.314474 -9.980392,13.193584 l -1.393658,1.87283 v 18.58845 c 0,10.20269 0.06743,18.75617 0.134871,19.00775 0.134869,0.41929 7.080683,0.44724 76.516334,0.44724 69.435656,0 76.381466,-0.028 76.516336,-0.44724 0.0674,-0.25158 0.13486,-2.51573 0.13486,-5.05941 v -4.61218 l -0.85417,-1.59331 c -1.91066,-3.4661 -2.29279,-4.16492 -2.62997,-4.50036 -0.17982,-0.19566 -0.33717,-0.50313 -0.33717,-0.69881 0,-0.19566 -0.15735,-0.50314 -0.33718,-0.69881 -0.17982,-0.19566 -0.78674,-1.174 -1.3487,-2.20825 -0.53949,-1.00629 -1.50605,-2.73934 -2.11297,-3.80155 -0.62939,-1.09015 -1.59596,-2.76731 -2.15791,-3.77359 -0.56197,-1.00629 -1.52853,-2.7114 -2.15793,-3.7736 -0.62939,-1.09016 -1.48358,-2.59959 -1.91066,-3.35431 -0.42709,-0.78266 -1.32622,-2.34802 -2.00058,-3.49408 -1.28126,-2.18029 -2.24783,-3.91335 -4.33831,-7.686941 -0.67436,-1.229907 -1.84324,-3.214538 -2.56254,-4.38855 -0.71931,-1.201952 -1.30374,-2.236197 -1.30374,-2.292104 0,-0.08391 -0.47205,-0.950385 -1.05649,-1.95669 -0.60692,-0.978326 -1.73083,-2.962957 -2.54005,-4.360595 -0.80922,-1.425577 -1.93315,-3.410209 -2.51759,-4.444453 -0.58442,-1.006292 -1.43861,-2.543684 -1.91065,-3.382261 -0.44956,-0.838576 -1.1464,-2.06849 -1.52853,-2.683446 -0.35965,-0.642909 -0.85418,-1.453534 -1.05648,-1.816916 -0.20231,-0.363384 -1.12392,-1.956679 -2.02306,-3.522024 -0.89913,-1.593297 -2.09049,-3.689738 -2.65244,-4.69603 -0.56196,-1.006293 -1.88819,-3.38226 -2.96714,-5.255083 -1.88818,-3.242497 -2.60749,-4.500362 -5.14755,-9.000726 -1.70835,-3.018877 -1.68587,-3.018877 -2.24783,-2.1803 z"
         inkscape:connector-curvature="0"
         style="fill:#006859;fill-opacity:1;stroke:none;stroke-width:0.02506647" />
      <path
         id="path12"
         d="m 20.293575,28.511212 c -0.06078,0.141831 -0.08105,27.656934 -0.06078,61.149177 l 0.06078,60.885781 H 99.819924 179.34627 V 89.457774 28.369382 l -79.485823,-0.06078 c -63.479249,-0.04052 -79.506087,0 -79.566872,0.202614 z m 152.650065,6.92943 c 0.16209,0.202615 0.20262,14.507227 0.18235,54.240009 l -0.0608,53.976609 H 99.819924 26.574637 l -0.06078,-53.976609 c -0.02026,-39.732782 0.02026,-54.037394 0.182353,-54.240009 0.344446,-0.425491 145.90299,-0.425491 146.24743,0 z"
         inkscape:connector-curvature="0"
         style="fill:#1a1a1a;fill-opacity:1;stroke:none;stroke-width:0.02026149" />
      <rect
         y="105.63725"
         x="42.213718"
         height="34.105751"
         width="115.02686"
         id="rect4643"
         style="fill:#ffffff;fill-opacity:1;stroke:#ffffff;stroke-width:0.35216454;stroke-opacity:1" />
      <text
         id="text4631"
         y="120.8737"
         x="99.504944"
         style="font-style:normal;font-weight:normal;font-size:10.58333302px;line-height:1.25;font-family:sans-serif;letter-spacing:0px;word-spacing:0px;fill:#aa0000;fill-opacity:1;stroke:#aa0000;stroke-width:0.26458332"
         xml:space="preserve"><tspan
           style="text-align:center;text-anchor:middle;fill:#aa0000;stroke:#aa0000;stroke-width:0.26458332"
           y="120.8737"
           x="99.504944"
           id="tspan4629"
           sodipodi:role="line">ERRO IMAGEM NÃO</tspan><tspan
           id="tspan4633"
           style="text-align:center;text-anchor:middle;fill:#aa0000;stroke:#aa0000;stroke-width:0.26458332"
           y="134.10287"
           x="99.504944"
           sodipodi:role="line">DISPONÍVEL</tspan></text>
    </g>
  </g>
</svg>
